<?xml version="1.0" encoding="UTF-8"?>
<svg width="22px" height="23px" viewBox="0 0 22 23" version="1.1" xmlns="http://www.w3.org/2000/svg" xmlns:xlink="http://www.w3.org/1999/xlink">
    <!-- Generator: Sketch 43.2 (39069) - http://www.bohemiancoding.com/sketch -->
    <title>blog</title>
    <desc>Created with Sketch.</desc>
    <defs></defs>
    <g id="SAMHSA-Search-" stroke="none" stroke-width="1" fill="none" fill-rule="evenodd">
        <g id="Landing" transform="translate(-966.000000, -55.000000)" fill="#122E51">
            <g id="header" transform="translate(35.000000, 23.000000)">
                <g id="social-media" transform="translate(812.000000, 29.000000)">
                    <path d="M140.9,24.9 C140.9,25.2 140.8,25.4 140.6,25.7 C140.4,25.9 140.2,26 139.9,26 L137.7,26 C137.4,26 137.2,25.9 137,25.7 C136.8,25.5 136.7,25.3 136.7,25 C136.6,22.7 136.1,20.5 135.1,18.4 C134.2,16.3 133,14.5 131.5,13 C130,11.5 128.3,10.2 126.3,9.3 C124.3,8.3 122.2,7.8 120,7.7 C119.7,7.7 119.5,7.6 119.3,7.4 C119.1,7.2 119,7 119,6.7 L119,4.4 C119,4.1 119.1,3.8 119.3,3.7 C119.5,3.5 119.7,3.4 120,3.4 L120,3.4 C122.7,3.5 125.3,4.2 127.8,5.3 C130.3,6.5 132.5,8 134.4,10.1 C136.3,12.1 137.8,14.4 139,17 C140.2,19.4 140.8,22.1 140.9,24.9 L140.9,24.9 Z M133,24.9 C133,25.2 132.9,25.5 132.7,25.7 C132.5,25.9 132.3,26 132,26 L129.9,26 C129.6,26 129.4,25.9 129.2,25.7 C129,25.5 128.9,25.3 128.9,25 C128.7,22.5 127.7,20.4 126,18.7 C124.3,16.9 122.3,16 119.9,15.7 C119.6,15.7 119.4,15.6 119.3,15.4 C119.1,15.2 119,15 119,14.7 L119,12.5 C119,12.2 119.1,11.9 119.3,11.7 C119.5,11.5 119.7,11.4 120,11.4 L120.1,11.4 C121.8,11.5 123.3,12 124.8,12.7 C126.3,13.4 127.6,14.4 128.8,15.6 C130,16.8 130.9,18.2 131.6,19.8 C132.3,21.4 132.8,23.2 133,24.9 L133,24.9 Z M124.2,20.7 C124.8,21.3 125.1,22 125.1,22.9 C125.1,23.8 124.8,24.5 124.2,25.1 C123.6,25.7 122.9,26 122.1,26 C121.3,26 120.6,25.7 120,25.1 C119.4,24.5 119.1,23.8 119.1,22.9 C119.1,22 119.4,21.3 120,20.7 C120.6,20.1 121.3,19.8 122.1,19.8 C122.9,19.8 123.6,20.1 124.2,20.7 L124.2,20.7 Z" id="blog"></path>
                </g>
            </g>
        </g>
    </g>
</svg>