<?xml version="1.0" encoding="UTF-8"?>
<svg width="25px" height="22px" viewBox="0 0 25 22" version="1.1" xmlns="http://www.w3.org/2000/svg" xmlns:xlink="http://www.w3.org/1999/xlink">
    <!-- Generator: Sketch 43.2 (39069) - http://www.bohemiancoding.com/sketch -->
    <title>twitter</title>
    <desc>Created with Sketch.</desc>
    <defs></defs>
    <g id="SAMHSA-Search-" stroke="none" stroke-width="1" fill="none" fill-rule="evenodd">
        <g id="Landing" transform="translate(-880.000000, -57.000000)" fill="#122E51">
            <g id="header" transform="translate(35.000000, 23.000000)">
                <g id="social-media" transform="translate(812.000000, 29.000000)">
                    <path d="M58,7.9 C57.3,9 56.5,9.9 55.5,10.6 L55.5,11.3 C55.5,12.7 55.3,14.1 54.9,15.5 C54.5,16.9 53.9,18.2 53.1,19.5 C52.3,20.8 51.3,21.9 50.2,22.9 C49.1,23.9 47.8,24.7 46.2,25.3 C44.6,25.9 43,26.2 41.2,26.2 C38.4,26.2 35.8,25.4 33.5,23.9 C33.9,23.9 34.3,24 34.7,24 C37,24 39.1,23.3 40.9,21.8 C39.8,21.8 38.8,21.4 38,20.8 C37.1,20.1 36.6,19.3 36.2,18.2 C36.5,18.3 36.9,18.3 37.1,18.3 C37.5,18.3 38,18.2 38.4,18.1 C37.2,17.9 36.3,17.3 35.5,16.3 C34.7,15.3 34.4,14.2 34.4,13 L34.4,12.9 C35.1,13.3 35.9,13.5 36.7,13.6 C36,13.1 35.5,12.5 35.1,11.7 C34.7,10.9 34.5,10.1 34.5,9.2 C34.5,8.3 34.7,7.4 35.2,6.6 C36.4,8.2 38,9.5 39.8,10.5 C41.6,11.5 43.5,12 45.6,12.1 C45.5,11.7 45.5,11.3 45.5,10.9 C45.5,9.5 46,8.2 47,7.2 C48,6.2 49.2,5.7 50.5,5.7 C51.9,5.7 53.2,6.3 54.2,7.3 C55.3,7.1 56.4,6.7 57.4,6 C57,7.2 56.3,8.2 55.2,8.9 C56.1,8.6 57,8.3 58,7.9 L58,7.9 Z" id="twitter"></path>
                </g>
            </g>
        </g>
    </g>
</svg>