<?xml version="1.0" encoding="UTF-8"?>
<svg width="24px" height="30px" viewBox="0 0 24 30" version="1.1" xmlns="http://www.w3.org/2000/svg" xmlns:xlink="http://www.w3.org/1999/xlink">
    <!-- Generator: Sketch 43.2 (39069) - http://www.bohemiancoding.com/sketch -->
    <title>you tube</title>
    <desc>Created with Sketch.</desc>
    <defs></defs>
    <g id="SAMHSA-Search-" stroke="none" stroke-width="1" fill="none" fill-rule="evenodd">
        <g id="Landing" transform="translate(-923.000000, -52.000000)" fill="#122E51">
            <g id="header" transform="translate(35.000000, 23.000000)">
                <g id="social-media" transform="translate(812.000000, 29.000000)">
                    <path d="M99.3,20.8 C99.3,23.3 99.2,25.2 98.9,26.5 C98.8,27.1 98.5,27.7 98,28.1 C97.5,28.5 97,28.8 96.4,28.8 C94.5,29 91.6,29.1 87.8,29.1 C84,29.1 81.1,29 79.2,28.8 C78.6,28.7 78.1,28.5 77.6,28.1 C77.1,27.7 76.8,27.1 76.7,26.5 C76.4,25.3 76.3,23.4 76.3,20.8 C76.3,18.3 76.4,16.4 76.7,15.1 C76.8,14.5 77.1,13.9 77.6,13.5 C78.1,13.1 78.6,12.8 79.2,12.7 C81.1,12.5 84,12.4 87.8,12.4 C91.6,12.4 94.5,12.5 96.4,12.7 C97,12.8 97.5,13 98,13.5 C98.5,13.9 98.8,14.5 98.9,15.1 C99.1,16.4 99.3,18.2 99.3,20.8 L99.3,20.8 Z M81.2,16.8 L82.9,16.8 L82.9,15.3 L78.1,15.3 L78.1,16.8 L79.7,16.8 L79.7,26 L81.2,26 L81.2,16.8 L81.2,16.8 Z M83.8,0.2 L85.4,0.2 L83.5,6.6 L83.5,11 L82,11 L82,6.6 C81.9,5.8 81.5,4.7 81.1,3.2 C80.7,2.1 80.4,1.1 80.1,0.2 L81.7,0.2 L82.8,4.4 L83.8,0.2 L83.8,0.2 Z M85.6,26 L87,26 L87,18 L85.6,18 L85.6,24.1 C85.3,24.6 85,24.8 84.7,24.8 C84.5,24.8 84.4,24.7 84.4,24.5 L84.4,23.9 L84.4,18 L83,18 L83,24.3 C83,24.8 83,25.2 83.1,25.5 C83.2,25.9 83.5,26.1 84,26.1 C84.5,26.1 85,25.8 85.6,25.1 L85.6,26 L85.6,26 Z M89.5,5.6 L89.5,8.4 C89.5,9.3 89.4,9.9 89.1,10.3 C88.7,10.8 88.2,11.1 87.5,11.1 C86.8,11.1 86.3,10.8 85.9,10.3 C85.6,9.9 85.5,9.3 85.5,8.4 L85.5,5.6 C85.5,4.7 85.6,4.1 85.9,3.7 C86.3,3.1 86.8,2.9 87.5,2.9 C88.2,2.9 88.8,3.2 89.1,3.7 C89.4,4.1 89.5,4.7 89.5,5.6 L89.5,5.6 Z M88.1,8.7 L88.1,5.3 C88.1,4.6 87.9,4.2 87.4,4.2 C87,4.2 86.7,4.6 86.7,5.3 L86.7,8.7 C86.7,9.5 86.9,9.8 87.4,9.8 C87.9,9.8 88.1,9.4 88.1,8.7 L88.1,8.7 Z M92.3,23.6 L92.3,20.4 C92.3,19.6 92.3,19.1 92.2,18.8 C92,18.2 91.7,17.9 91.1,17.9 C90.6,17.9 90.1,18.2 89.7,18.8 L89.7,15.3 L88.3,15.3 L88.3,26 L89.7,26 L89.7,25.2 C90.2,25.8 90.6,26.1 91.1,26.1 C91.7,26.1 92,25.8 92.2,25.2 C92.2,24.9 92.3,24.4 92.3,23.6 L92.3,23.6 Z M90.9,20.3 L90.9,23.7 C90.9,24.4 90.7,24.8 90.3,24.8 C90.1,24.8 89.8,24.7 89.6,24.4 L89.6,19.5 C89.8,19.3 90.1,19.1 90.3,19.1 C90.7,19.2 90.9,19.6 90.9,20.3 L90.9,20.3 Z M94.7,2.9 L94.7,11 L93.3,11 L93.3,10.1 C92.8,10.8 92.2,11.1 91.7,11.1 C91.2,11.1 90.9,10.9 90.8,10.5 C90.7,10.2 90.7,9.8 90.7,9.3 L90.7,2.9 L92.1,2.9 L92.1,8.8 L92.1,9.4 C92.1,9.6 92.2,9.8 92.4,9.8 C92.7,9.8 93,9.6 93.3,9.1 L93.3,2.9 L94.7,2.9 L94.7,2.9 Z M97.5,23.4 L97.5,23.2 L96.1,23.2 L96.1,24.2 C96,24.6 95.8,24.8 95.5,24.8 C95,24.8 94.8,24.4 94.8,23.7 L94.8,22.3 L97.6,22.3 L97.6,20.6 C97.6,19.8 97.5,19.1 97.2,18.7 C96.8,18.1 96.2,17.9 95.6,17.9 C94.9,17.9 94.3,18.2 93.9,18.7 C93.6,19.1 93.5,19.7 93.5,20.6 L93.5,23.4 C93.5,24.3 93.7,24.9 93.9,25.3 C94.3,25.8 94.9,26.1 95.6,26.1 C96.3,26.1 96.9,25.8 97.3,25.2 C97.5,24.9 97.6,24.6 97.6,24.3 C97.5,24.3 97.5,23.9 97.5,23.4 L97.5,23.4 Z M96.2,20.3 L96.2,21 L94.8,21 L94.8,20.3 C94.8,19.6 95,19.2 95.5,19.2 C95.9,19.2 96.2,19.6 96.2,20.3 L96.2,20.3 Z" id="you-tube"></path>
                </g>
            </g>
        </g>
    </g>
</svg>